# xmcd CD database file generated by Grip 2.95
# 
# Track frame offsets:
#       150
#       13312
#       26962
#       39882
#       54750
#       66477
#       80082
#       93650
#       107092
#       118107
#       131425
#       147007
#       156585
#       169267
#       181970
#       199887
#       212762
#       222767
#       235875
#       247785
#       259710
#       273500
# 
# Disc length: 3906 seconds
# 
# Revision: 3
# Processed by: cddbd v1.4PL0 Copyright (c) Steve Scherf et al.
# Submitted via: Grip 2.95
# 
DISCID=450f4016
DTITLE=Etta James - The Essential Etta James Disc 1
DYEAR=1900
DGENRE=
TTITLE0=All I Could Do Is Cry
TTITLE1=My Dearest Darling
TTITLE2=If I Can't Have You
TTITLE3=A Sunday Kind of Love
TTITLE4=Anything to Say You're Mine
TTITLE5=At Last
TTITLE6=Seven Day Fool
TTITLE7=Trust In Me
TTITLE8=Don't Cry Baby
TTITLE9=Fool That I Am
TTITLE10=One For My Baby (And One More For The Road)
TTITLE11=Waiting For Charlie (To Come Home)
TTITLE12=Something's Got a Hold On Me
TTITLE13=Next Door To the Blues
TTITLE14=These Foolish Things (Remind Me Of You)
TTITLE15=Stop The Wedding
TTITLE16=Prisoner Of Love
TTITLE17=Pushover
TTITLE18=Would It Make Any Difference To You
TTITLE19=Pay Back
TTITLE20=Two Sides To Every Story
TTITLE21=Baby What You Want Me To Do
EXTD=
EXTT0=
EXTT1=
EXTT2=With Harvey Fuqua
EXTT3=
EXTT4=
EXTT5=
EXTT6=
EXTT7=
EXTT8=
EXTT9=
EXTT10=
EXTT11=
EXTT12=
EXTT13=
EXTT14=
EXTT15=
EXTT16=
EXTT17=
EXTT18=
EXTT19=
EXTT20=
EXTT21=live
PLAYORDER=
